<?xml version="1.0" encoding="UTF-8" standalone="no"?>
<svg
   xmlns:dc="http://purl.org/dc/elements/1.1/"
   xmlns:cc="http://creativecommons.org/ns#"
   xmlns:rdf="http://www.w3.org/1999/02/22-rdf-syntax-ns#"
   xmlns:svg="http://www.w3.org/2000/svg"
   xmlns="http://www.w3.org/2000/svg"
   xmlns:sodipodi="http://sodipodi.sourceforge.net/DTD/sodipodi-0.dtd"
   xmlns:inkscape="http://www.inkscape.org/namespaces/inkscape"
   height="375.39999mm"
   viewBox="0 0 465.07866 375.39999"
   width="465.07867mm"
   version="1.1"
   id="svg23"
   sodipodi:docname="OpenBox5.svg"
   inkscape:version="1.0.1 (3bc2e813f5, 2020-09-07)">
  <defs
     id="defs27" />
  <sodipodi:namedview
     pagecolor="#ffffff"
     bordercolor="#666666"
     borderopacity="1"
     objecttolerance="10"
     gridtolerance="10"
     guidetolerance="10"
     inkscape:pageopacity="0"
     inkscape:pageshadow="2"
     inkscape:window-width="1278"
     inkscape:window-height="1398"
     id="namedview25"
     showgrid="false"
     fit-margin-top="0"
     fit-margin-left="0"
     fit-margin-right="0"
     fit-margin-bottom="0"
     inkscape:zoom="0.3604384"
     inkscape:cx="1465.412"
     inkscape:cy="654.64092"
     inkscape:window-x="1280"
     inkscape:window-y="42"
     inkscape:window-maximized="0"
     inkscape:current-layer="svg23" />
  <!--
OpenBox - Box with top and front open

Created with Boxes.py (https://festi.info/boxes.py)
Creation date: 2020-09-21 23:42:23
Command line (remove spaces between dashes): boxes OpenBox - -FingerJoint_angle=90.0 - -FingerJoint_style=rectangular - -FingerJoint_surroundingspaces=2.0 - -FingerJoint_edge_width=1.0 - -FingerJoint_finger=2.0 - -FingerJoint_play=0.0 - -FingerJoint_space=2.0 - -FingerJoint_width=1.0 - -x=430 - -y=357 - -h=8 - -outside=0 - -thickness=4.0 - -format=svg - -tabs=0.0 - -debug=0 - -reference=100 - -burn=0.1
Url: http://www.festi.info/OpenBox?FingerJoint_angle=90.0&FingerJoint_style=rectangular&FingerJoint_surroundingspaces=2.0&FingerJoint_edge_width=1.0&FingerJoint_finger=2.0&FingerJoint_play=0.0&FingerJoint_space=2.0&FingerJoint_width=1.0&x=430&y=357&h=8&outside=0&thickness=4.0&format=svg&tabs=0.0&debug=0&reference=100&burn=0.1&render=1
SettingsUrl: http://www.festi.info/OpenBox?FingerJoint_angle=90.0&FingerJoint_style=rectangular&FingerJoint_surroundingspaces=2.0&FingerJoint_edge_width=1.0&FingerJoint_finger=2.0&FingerJoint_play=0.0&FingerJoint_space=2.0&FingerJoint_width=1.0&x=430&y=357&h=8&outside=0&thickness=4.0&format=svg&tabs=0.0&debug=0&reference=100&burn=0.1
-->
  <title
     id="title2">OpenBox</title>
  <metadata
     id="metadata4">
    <rdf:RDF>
      <cc:Work>
        <dc:title>Box - OpenBox</dc:title>
        <dc:date>2020-09-21 23:42:23</dc:date>
        <dc:source>http://www.festi.info/OpenBox?FingerJoint_angle=90.0&amp;FingerJoint_style=rectangular&amp;FingerJoint_surroundingspaces=2.0&amp;FingerJoint_edge_width=1.0&amp;FingerJoint_finger=2.0&amp;FingerJoint_play=0.0&amp;FingerJoint_space=2.0&amp;FingerJoint_width=1.0&amp;x=430&amp;y=357&amp;h=8&amp;outside=0&amp;thickness=4.0&amp;format=svg&amp;tabs=0.0&amp;debug=0&amp;reference=100&amp;burn=0.1&amp;render=1</dc:source>
        <dc:description>Box with top and front open

Created with Boxes.py (https://festi.info/boxes.py)
Command line: boxes OpenBox --FingerJoint_angle=90.0 --FingerJoint_style=rectangular --FingerJoint_surroundingspaces=2.0 --FingerJoint_edge_width=1.0 --FingerJoint_finger=2.0 --FingerJoint_play=0.0 --FingerJoint_space=2.0 --FingerJoint_width=1.0 --x=430 --y=357 --h=8 --outside=0 --thickness=4.0 --format=svg --tabs=0.0 --debug=0 --reference=100 --burn=0.1
Url: http://www.festi.info/OpenBox?FingerJoint_angle=90.0&amp;FingerJoint_style=rectangular&amp;FingerJoint_surroundingspaces=2.0&amp;FingerJoint_edge_width=1.0&amp;FingerJoint_finger=2.0&amp;FingerJoint_play=0.0&amp;FingerJoint_space=2.0&amp;FingerJoint_width=1.0&amp;x=430&amp;y=357&amp;h=8&amp;outside=0&amp;thickness=4.0&amp;format=svg&amp;tabs=0.0&amp;debug=0&amp;reference=100&amp;burn=0.1&amp;render=1
SettingsUrl: http://www.festi.info/OpenBox?FingerJoint_angle=90.0&amp;FingerJoint_style=rectangular&amp;FingerJoint_surroundingspaces=2.0&amp;FingerJoint_edge_width=1.0&amp;FingerJoint_finger=2.0&amp;FingerJoint_play=0.0&amp;FingerJoint_space=2.0&amp;FingerJoint_width=1.0&amp;x=430&amp;y=357&amp;h=8&amp;outside=0&amp;thickness=4.0&amp;format=svg&amp;tabs=0.0&amp;debug=0&amp;reference=100&amp;burn=0.1
</dc:description>
        <dc:format>image/svg+xml</dc:format>
        <dc:type
           rdf:resource="http://purl.org/dc/dcmitype/StillImage" />
      </cc:Work>
    </rdf:RDF>
  </metadata>
  <path
     d="m 0.395833,375.4 h 11 c 0.055,0 0.1,-0.045 0.1,-0.1 v -3.9 c 0,-0.1 -0.1,0 0,0 h 7.8 c 0.1,0 0,-0.1 0,0 v 3.9 c 0,0.055 0.045,0.1 0.1,0.1 h 8 c 0.055,0 0.1,-0.045 0.1,-0.1 v -3.9 c 0,-0.1 -0.1,0 0,0 h 7.8 c 0.1,0 0,-0.1 0,0 v 3.9 c 0,0.055 0.045,0.1 0.1,0.1 h 8 c 0.055,0 0.1,-0.045 0.1,-0.1 v -3.9 c 0,-0.1 -0.1,0 0,0 h 7.8 c 0.1,0 0,-0.1 0,0 v 3.9 c 0,0.055 0.045,0.1 0.1,0.1 h 8 c 0.055,0 0.1,-0.045 0.1,-0.1 v -3.9 c 0,-0.1 -0.1,0 0,0 h 7.8 c 0.1,0 0,-0.1 0,0 v 3.9 c 0,0.055 0.045,0.1 0.1,0.1 h 8 c 0.055,0 0.1,-0.045 0.1,-0.1 v -3.9 c 0,-0.1 -0.1,0 0,0 h 7.8 c 0.1,0 0,-0.1 0,0 v 3.9 c 0,0.055 0.045,0.1 0.1,0.1 h 8 c 0.055,0 0.1,-0.045 0.1,-0.1 v -3.9 c 0,-0.1 -0.1,0 0,0 h 7.8 c 0.1,0 0,-0.1 0,0 v 3.9 c 0,0.055 0.045,0.1 0.1,0.1 h 7.999997 c 0.055,0 0.1,-0.045 0.1,-0.1 v -3.9 c 0,-0.1 -0.1,0 0,0 h 7.8 c 0.1,0 0,-0.1 0,0 v 3.9 c 0,0.055 0.045,0.1 0.1,0.1 h 8 c 0.055,0 0.1,-0.045 0.1,-0.1 v -3.9 c 0,-0.1 -0.1,0 0,0 h 7.8 c 0.1,0 0,-0.1 0,0 v 3.9 c 0,0.055 0.045,0.1 0.1,0.1 h 8 c 0.055,0 0.1,-0.045 0.1,-0.1 v -3.9 c 0,-0.1 -0.1,0 0,0 h 7.8 c 0.1,0 0,-0.1 0,0 v 3.9 c 0,0.055 0.045,0.1 0.1,0.1 h 8 c 0.055,0 0.1,-0.045 0.1,-0.1 v -3.9 c 0,-0.1 -0.1,0 0,0 h 7.8 c 0.1,0 0,-0.1 0,0 v 3.9 c 0,0.055 0.045,0.1 0.1,0.1 h 8 c 0.055,0 0.1,-0.045 0.1,-0.1 v -3.9 c 0,-0.1 -0.1,0 0,0 h 7.8 c 0.1,0 0,-0.1 0,0 v 3.9 c 0,0.055 0.045,0.1 0.1,0.1 h 8 c 0.055,0 0.1,-0.045 0.1,-0.1 v -3.9 c 0,-0.1 -0.1,0 0,0 h 7.8 c 0.1,0 0,-0.1 0,0 v 3.9 c 0,0.055 0.045,0.1 0.1,0.1 h 8 c 0.055,0 0.1,-0.045 0.1,-0.1 v -3.9 c 0,-0.1 -0.1,0 0,0 h 7.8 c 0.1,0 0,-0.1 0,0 v 3.9 c 0,0.055 0.045,0.1 0.1,0.1 h 8 c 0.055,0 0.1,-0.045 0.1,-0.1 v -3.9 c 0,-0.1 -0.1,0 0,0 h 7.8 c 0.1,0 0,-0.1 0,0 v 3.9 c 0,0.055 0.045,0.1 0.1,0.1 h 8 c 0.055,0 0.1,-0.045 0.1,-0.1 v -3.9 c 0,-0.1 -0.1,0 0,0 h 7.8 c 0.1,0 0,-0.1 0,0 v 3.9 c 0,0.055 0.045,0.1 0.1,0.1 h 8 c 0.055,0 0.1,-0.045 0.1,-0.1 v -3.9 c 0,-0.1 -0.1,0 0,0 h 7.8 c 0.1,0 0,-0.1 0,0 v 3.9 c 0,0.055 0.045,0.1 0.1,0.1 h 8 c 0.055,0 0.1,-0.045 0.1,-0.1 v -3.9 c 0,-0.1 -0.1,0 0,0 h 7.8 c 0.1,0 0,-0.1 0,0 v 3.9 c 0,0.055 0.045,0.1 0.1,0.1 h 8 c 0.055,0 0.1,-0.045 0.1,-0.1 v -3.9 c 0,-0.1 -0.1,0 0,0 h 7.8 c 0.1,0 0,-0.1 0,0 v 3.9 c 0,0.055 0.045,0.1 0.1,0.1 h 8 c 0.055,0 0.1,-0.045 0.1,-0.1 v -3.9 c 0,-0.1 -0.1,0 0,0 h 7.8 c 0.1,0 0,-0.1 0,0 v 3.9 c 0,0.055 0.045,0.1 0.1,0.1 h 8 c 0.055,0 0.1,-0.045 0.1,-0.1 v -3.9 c 0,-0.1 -0.1,0 0,0 h 7.8 c 0.1,0 0,-0.1 0,0 v 3.9 c 0,0.055 0.045,0.1 0.1,0.1 h 8 c 0.055,0 0.1,-0.045 0.1,-0.1 v -3.9 c 0,-0.1 -0.1,0 0,0 h 7.8 c 0.1,0 0,-0.1 0,0 v 3.9 c 0,0.055 0.045,0.1 0.1,0.1 h 8 c 0.055,0 0.1,-0.045 0.1,-0.1 v -3.9 c 0,-0.1 -0.1,0 0,0 h 7.8 c 0.1,0 0,-0.1 0,0 v 3.9 c 0,0.055 0.045,0.1 0.1,0.1 h 8 c 0.055,0 0.1,-0.045 0.1,-0.1 v -3.9 c 0,-0.1 -0.1,0 0,0 h 7.8 c 0.1,0 0,-0.1 0,0 v 3.9 c 0,0.055 0.045,0.1 0.1,0.1 h 8 c 0.055,0 0.1,-0.045 0.1,-0.1 v -3.9 c 0,-0.1 -0.1,0 0,0 h 7.8 c 0.1,0 0,-0.1 0,0 v 3.9 c 0,0.055 0.045,0.1 0.1,0.1 h 8 c 0.055,0 0.1,-0.045 0.1,-0.1 v -3.9 c 0,-0.1 -0.1,0 0,0 h 7.8 c 0.1,0 0,-0.1 0,0 v 3.9 c 0,0.055 0.045,0.1 0.1,0.1 h 8 c 0.055,0 0.1,-0.045 0.1,-0.1 v -3.9 c 0,-0.1 -0.1,0 0,0 h 7.8 c 0.1,0 0,-0.1 0,0 v 3.9 c 0,0.055 0.045,0.1 0.1,0.1 h 11 4 c 0.055,0 0.1,-0.045 0.1,-0.1 v -4 -4 -4 c 0,-0.055 -0.045,-0.1 -0.1,-0.1 h -4 H 0.395833 0.1 c -0.055,0 -0.1,0.045 -0.1,0.1 v 4 4 4 c 0,0.055 0.045,0.1 0.1,0.1 z"
     stroke="#000000"
     stroke-width="0.2"
     id="path11"
     style="fill:#ffff00;stroke:none;stroke-linecap:round;stroke-linejoin:round"
     sodipodi:nodetypes="csssssssssssssssssssssssssssssssssssssssssssssssssssssssssssssssssssssssssssssssssssssssssssssssssssssssssssssssssssssssssssssssssssssssssssssssssssssssssssssssssssssssssssssssssssssssssssssssssssssssssssssssscssccssccssccssc" />
  <path
     d="m 438.67868,4.1 v 14.5 c 0,0.055 0.045,0.1 0.1,0.1 h 3.9 c 0.1,0 0,-0.1 0,0 v 7.8 c 0,0.1 0.1,0 0,0 h -3.9 c -0.055,0 -0.1,0.045 -0.1,0.1 v 8 c 0,0.055 0.045,0.1 0.1,0.1 h 3.9 c 0.1,0 0,-0.1 0,0 v 7.8 c 0,0.1 0.1,0 0,0 h -3.9 c -0.055,0 -0.1,0.045 -0.1,0.1 v 8 c 0,0.055 0.045,0.1 0.1,0.1 h 3.9 c 0.1,0 0,-0.1 0,0 v 7.8 c 0,0.1 0.1,0 0,0 h -3.9 c -0.055,0 -0.1,0.045 -0.1,0.1 v 8 c 0,0.055 0.045,0.1 0.1,0.1 h 3.9 c 0.1,0 0,-0.1 0,0 v 7.8 c 0,0.1 0.1,0 0,0 h -3.9 c -0.055,0 -0.1,0.045 -0.1,0.1 v 8 c 0,0.055 0.045,0.1 0.1,0.1 h 3.9 c 0.1,0 0,-0.1 0,0 v 7.8 c 0,0.1 0.1,0 0,0 h -3.9 c -0.055,0 -0.1,0.045 -0.1,0.1 v 8 c 0,0.055 0.045,0.1 0.1,0.1 h 3.9 c 0.1,0 0,-0.1 0,0 v 7.8 c 0,0.1 0.1,0 0,0 h -3.9 c -0.055,0 -0.1,0.045 -0.1,0.1 v 8 c 0,0.055 0.045,0.1 0.1,0.1 h 3.9 c 0.1,0 0,-0.1 0,0 v 7.8 c 0,0.1 0.1,0 0,0 h -3.9 c -0.055,0 -0.1,0.045 -0.1,0.1 v 8 c 0,0.055 0.045,0.1 0.1,0.1 h 3.9 c 0.1,0 0,-0.1 0,0 v 7.8 c 0,0.1 0.1,0 0,0 h -3.9 c -0.055,0 -0.1,0.045 -0.1,0.1 v 8 c 0,0.055 0.045,0.1 0.1,0.1 h 3.9 c 0.1,0 0,-0.1 0,0 v 7.8 c 0,0.1 0.1,0 0,0 h -3.9 c -0.055,0 -0.1,0.045 -0.1,0.1 v 8 c 0,0.055 0.045,0.1 0.1,0.1 h 3.9 c 0.1,0 0,-0.1 0,0 v 7.8 c 0,0.1 0.1,0 0,0 h -3.9 c -0.055,0 -0.1,0.045 -0.1,0.1 v 8 c 0,0.055 0.045,0.1 0.1,0.1 h 3.9 c 0.1,0 0,-0.1 0,0 v 7.8 c 0,0.1 0.1,0 0,0 h -3.9 c -0.055,0 -0.1,0.045 -0.1,0.1 v 8 c 0,0.055 0.045,0.1 0.1,0.1 h 3.9 c 0.1,0 0,-0.1 0,0 v 7.8 c 0,0.1 0.1,0 0,0 h -3.9 c -0.055,0 -0.1,0.045 -0.1,0.1 v 8 c 0,0.055 0.045,0.1 0.1,0.1 h 3.9 c 0.1,0 0,-0.1 0,0 v 7.8 c 0,0.1 0.1,0 0,0 h -3.9 c -0.055,0 -0.1,0.045 -0.1,0.1 v 8 c 0,0.055 0.045,0.1 0.1,0.1 h 3.9 c 0.1,0 0,-0.1 0,0 v 7.8 c 0,0.1 0.1,0 0,0 h -3.9 c -0.055,0 -0.1,0.045 -0.1,0.1 v 8 c 0,0.055 0.045,0.1 0.1,0.1 h 3.9 c 0.1,0 0,-0.1 0,0 v 7.8 c 0,0.1 0.1,0 0,0 h -3.9 c -0.055,0 -0.1,0.045 -0.1,0.1 v 13.13334 c 0,0.055 0.0455,0.0928 0.1,0.1 h 4 8 c 0.055,0 0.1,-0.045 0.1,-0.1 V 4.1 c 0,-0.055 -0.045,-0.1 -0.1,-0.1 h -4 -4 -4 c -0.055,0 -0.1,0.045 -0.1,0.1 z"
     stroke="#000000"
     stroke-width="0.2"
     id="path14"
     style="fill:#ffff00;stroke:none;stroke-linecap:round;stroke-linejoin:round"
     sodipodi:nodetypes="ssssssssssssssssssssssssssssssssssssssssssssssssssssssssssssssssssssssssssssssssssssssssssssssssssssssssssssssssssssssssccscssssccss" />
  <path
     id="path20"
     style="fill:#ffff00;stroke:none;stroke-linecap:round;stroke-linejoin:round"
     d="M 43.070312 0 C 42.862438 0 42.693359 0.17103223 42.693359 0.37890625 L 42.693359 15.117188 L 1.4960938 15.117188 C 1.2882197 15.117188 1.1171875 15.28822 1.1171875 15.496094 L 1.1171875 1364.7871 C 1.1171875 1364.995 1.2882197 1365.166 1.4960938 1365.166 L 1500.2441 1365.166 L 1626.6934 1365.166 L 1719.9824 1365.166 C 1740.921 1365.166 1757.7773 1348.3077 1757.7773 1327.3691 L 1757.7773 1041 C 1757.7773 1020.0614 1740.921 1003.2031 1719.9824 1003.2031 L 1627.0703 1003.2031 L 1627.0703 947.52734 L 1641.8105 947.52734 C 1642.0184 947.52734 1642.1895 947.35826 1642.1895 947.15039 L 1642.1895 916.91406 C 1642.1895 916.70619 1642.0184 916.53516 1641.8105 916.53516 L 1627.0703 916.53516 L 1627.0703 887.05469 L 1641.8105 887.05469 C 1642.0184 887.05469 1642.1895 886.88561 1642.1895 886.67773 L 1642.1895 856.44141 C 1642.1895 856.23353 1642.0184 856.0625 1641.8105 856.0625 L 1627.0703 856.0625 L 1627.0703 826.58203 L 1641.8105 826.58203 C 1642.0184 826.58203 1642.1895 826.41295 1642.1895 826.20508 L 1642.1895 795.96875 C 1642.1895 795.76088 1642.0184 795.58984 1641.8105 795.58984 L 1627.0703 795.58984 L 1627.0703 766.10938 L 1641.8105 766.10938 C 1642.0184 766.10938 1642.1895 765.9403 1642.1895 765.73242 L 1642.1895 735.49609 C 1642.1895 735.28822 1642.0184 735.11719 1641.8105 735.11719 L 1627.0703 735.11719 L 1627.0703 705.63867 L 1641.8105 705.63867 C 1642.0184 705.63867 1642.1895 705.46764 1642.1895 705.25977 L 1642.1895 675.02344 C 1642.1895 674.81556 1642.0184 674.64648 1641.8105 674.64648 L 1627.0703 674.64648 L 1627.0703 645.16602 L 1641.8105 645.16602 C 1642.0184 645.16602 1642.1895 644.99498 1642.1895 644.78711 L 1642.1895 614.55078 C 1642.1895 614.34291 1642.0184 614.17383 1641.8105 614.17383 L 1627.0703 614.17383 L 1627.0703 584.69336 L 1641.8105 584.69336 C 1642.0184 584.69336 1642.1895 584.52233 1642.1895 584.31445 L 1642.1895 554.07812 C 1642.1895 553.87025 1642.0184 553.70117 1641.8105 553.70117 L 1627.0703 553.70117 L 1627.0703 524.2207 L 1641.8105 524.2207 C 1642.0184 524.2207 1642.1895 524.04967 1642.1895 523.8418 L 1642.1895 493.60547 C 1642.1895 493.39759 1642.0184 493.22852 1641.8105 493.22852 L 1627.0703 493.22852 L 1627.0703 463.74805 L 1641.8105 463.74805 C 1642.0184 463.74805 1642.1895 463.57701 1642.1895 463.36914 L 1642.1895 433.13477 C 1642.1895 432.92689 1642.0184 432.75586 1641.8105 432.75586 L 1627.0703 432.75586 L 1627.0703 403.27539 L 1641.8105 403.27539 C 1642.0184 403.27539 1642.1895 403.10631 1642.1895 402.89844 L 1642.1895 372.66211 C 1642.1895 372.45424 1642.0184 372.2832 1641.8105 372.2832 L 1627.0703 372.2832 L 1627.0703 342.80273 L 1641.8105 342.80273 C 1642.0184 342.80273 1642.1895 342.63366 1642.1895 342.42578 L 1642.1895 312.18945 C 1642.1895 311.98158 1642.0184 311.81055 1641.8105 311.81055 L 1627.0703 311.81055 L 1627.0703 282.33008 L 1641.8105 282.33008 C 1642.0184 282.33008 1642.1895 282.161 1642.1895 281.95312 L 1642.1895 251.7168 C 1642.1895 251.50892 1642.0184 251.33789 1641.8105 251.33789 L 1627.0703 251.33789 L 1627.0703 221.85742 L 1641.8105 221.85742 C 1642.0184 221.85742 1642.1895 221.68834 1642.1895 221.48047 L 1642.1895 191.24414 C 1642.1895 191.03627 1642.0184 190.86523 1641.8105 190.86523 L 1627.0703 190.86523 L 1627.0703 161.38672 L 1641.8105 161.38672 C 1642.0184 161.38672 1642.1895 161.21569 1642.1895 161.00781 L 1642.1895 130.77148 C 1642.1895 130.56361 1642.0184 130.39453 1641.8105 130.39453 L 1627.0703 130.39453 L 1627.0703 100.91406 L 1641.8105 100.91406 C 1642.0184 100.91406 1642.1895 100.74303 1642.1895 100.53516 L 1642.1895 70.298828 C 1642.1895 70.090954 1642.0184 69.921875 1641.8105 69.921875 L 1627.0703 69.921875 L 1627.0703 15.496094 C 1627.0703 15.28822 1626.9012 15.117188 1626.6934 15.117188 L 1585.4961 15.117188 L 1585.4961 0.37890625 C 1585.4961 0.17103223 1585.3251 7.4014868e-17 1585.1172 0 L 1554.8828 0 C 1554.6749 0 1554.5039 0.17103223 1554.5039 0.37890625 L 1554.5039 15.117188 L 1525.0234 15.117188 L 1525.0234 0.37890625 C 1525.0234 0.17103223 1524.8544 7.4014868e-17 1524.6465 0 L 1494.4102 0 C 1494.2023 0 1494.0312 0.17103223 1494.0312 0.37890625 L 1494.0312 15.117188 L 1464.5508 15.117188 L 1464.5508 0.37890625 C 1464.5508 0.17103223 1464.3817 7.4014868e-17 1464.1738 0 L 1433.9375 0 C 1433.7296 0 1433.5586 0.17103223 1433.5586 0.37890625 L 1433.5586 15.117188 L 1404.0781 15.117188 L 1404.0781 0.37890625 C 1404.0781 0.17103223 1403.909 7.4014868e-17 1403.7012 0 L 1373.4648 0 C 1373.257 0 1373.0859 0.17103223 1373.0859 0.37890625 L 1373.0859 15.117188 L 1343.6055 15.117188 L 1343.6055 0.37890625 C 1343.6055 0.17103223 1343.4364 7.4014868e-17 1343.2285 0 L 1312.9922 0 C 1312.7843 0 1312.6133 0.17103223 1312.6133 0.37890625 L 1312.6133 15.117188 L 1283.1348 15.117188 L 1283.1348 0.37890625 C 1283.1348 0.17103223 1282.9637 7.4014868e-17 1282.7559 0 L 1252.5195 0 C 1252.3117 0 1252.1426 0.17103223 1252.1426 0.37890625 L 1252.1426 15.117188 L 1222.6621 15.117188 L 1222.6621 0.37890625 C 1222.6621 0.17103223 1222.4911 7.4014868e-17 1222.2832 0 L 1192.0469 0 C 1191.839 0 1191.6699 0.17103223 1191.6699 0.37890625 L 1191.6699 15.117188 L 1162.1895 15.117188 L 1162.1895 0.37890625 C 1162.1895 0.17103223 1162.0184 7.4014868e-17 1161.8105 0 L 1131.5742 0 C 1131.3663 0 1131.1973 0.17103223 1131.1973 0.37890625 L 1131.1973 15.117188 L 1101.7168 15.117188 L 1101.7168 0.37890625 C 1101.7168 0.17103223 1101.5458 7.4014868e-17 1101.3379 0 L 1071.1016 0 C 1070.8937 0 1070.7246 0.17103223 1070.7246 0.37890625 L 1070.7246 15.117188 L 1041.2441 15.117188 L 1041.2441 0.37890625 C 1041.2441 0.17103223 1041.0731 7.4014868e-17 1040.8652 0 L 1010.6309 0 C 1010.423 0 1010.252 0.17103223 1010.252 0.37890625 L 1010.252 15.117188 L 980.77148 15.117188 L 980.77148 0.37890625 C 980.77148 0.17103223 980.60241 7.4014868e-17 980.39453 0 L 950.1582 0 C 949.95033 0 949.7793 0.17103223 949.7793 0.37890625 L 949.7793 15.117188 L 920.29883 15.117188 L 920.29883 0.37890625 C 920.29883 0.17103223 920.12975 7.4014868e-17 919.92188 0 L 889.68555 0 C 889.47767 0 889.30664 0.17103223 889.30664 0.37890625 L 889.30664 15.117188 L 859.82617 15.117188 L 859.82617 0.37890625 C 859.82617 0.17103223 859.65709 7.4014868e-17 859.44922 0 L 829.21289 0 C 829.00502 0 828.83398 0.17103223 828.83398 0.37890625 L 828.83398 15.117188 L 799.35352 15.117188 L 799.35352 0.37890625 C 799.35352 0.17103223 799.18444 7.4014868e-17 798.97656 0 L 768.74023 0 C 768.53236 0 768.36133 0.17103223 768.36133 0.37890625 L 768.36133 15.117188 L 738.88281 15.117188 L 738.88281 0.37890625 C 738.88281 0.17103223 738.71178 7.4014868e-17 738.50391 0 L 708.26758 0 C 708.0597 0 707.89063 0.17103223 707.89062 0.37890625 L 707.89062 15.117188 L 678.41016 15.117188 L 678.41016 0.37890625 C 678.41016 0.17103223 678.23912 7.4014868e-17 678.03125 0 L 647.79492 0 C 647.58705 0 647.41797 0.17103223 647.41797 0.37890625 L 647.41797 15.117188 L 617.9375 15.117188 L 617.9375 0.37890625 C 617.9375 0.17103223 617.76647 7.4014868e-17 617.55859 0 L 587.32227 0 C 587.11439 0 586.94531 0.17103223 586.94531 0.37890625 L 586.94531 15.117188 L 557.46484 15.117188 L 557.46484 0.37890625 C 557.46484 0.17103223 557.29381 7.4014868e-17 557.08594 0 L 526.84961 0 C 526.64174 0 526.47266 0.17103223 526.47266 0.37890625 L 526.47266 15.117188 L 496.99219 15.117188 L 496.99219 0.37890625 C 496.99219 0.17103223 496.82116 7.4014868e-17 496.61328 0 L 466.37891 0 C 466.17103 0 466 0.17103223 466 0.37890625 L 466 15.117188 L 436.51953 15.117188 L 436.51953 0.37890625 C 436.51953 0.17103223 436.35045 7.4014868e-17 436.14258 0 L 405.90625 0 C 405.69838 0 405.52734 0.17103223 405.52734 0.37890625 L 405.52734 15.117188 L 376.04688 15.117188 L 376.04688 0.37890625 C 376.04688 0.17103223 375.8778 7.4014868e-17 375.66992 0 L 345.43359 0 C 345.22572 0 345.05469 0.17103223 345.05469 0.37890625 L 345.05469 15.117188 L 315.57422 15.117188 L 315.57422 0.37890625 C 315.57422 0.17103223 315.40514 7.4014868e-17 315.19727 0 L 284.96094 0 C 284.75306 0 284.58203 0.17103223 284.58203 0.37890625 L 284.58203 15.117188 L 255.10156 15.117188 L 255.10156 0.37890625 C 255.10156 0.17103223 254.93248 7.4014868e-17 254.72461 0 L 224.48828 0 C 224.28041 0 224.10937 0.17103223 224.10938 0.37890625 L 224.10938 15.117188 L 194.63086 15.117188 L 194.63086 0.37890625 C 194.63086 0.17103223 194.45983 7.4014868e-17 194.25195 0 L 164.01562 0 C 163.80775 0 163.63867 0.17103223 163.63867 0.37890625 L 163.63867 15.117188 L 134.1582 15.117188 L 134.1582 0.37890625 C 134.1582 0.17103223 133.98717 7.4014868e-17 133.7793 0 L 103.54297 0 C 103.33509 0 103.16602 0.17103223 103.16602 0.37890625 L 103.16602 15.117188 L 73.685547 15.117188 L 73.685547 0.37890625 C 73.685547 0.17103223 73.514515 7.4014868e-17 73.306641 0 L 43.070312 0 z "
     transform="scale(0.26458333)" />
</svg>
